<svg width="287" height="77" viewBox="0 0 287 77" fill="none" xmlns="http://www.w3.org/2000/svg">
<path d="M96.021 61.2592H111.698V77C103.04 77 96.021 69.9526 96.021 61.2592Z" fill="#449AFF"/>
<path d="M96.021 16.0045H111.698V31.7453H96.021V16.0045Z" fill="#449AFF"/>
<path d="M96.021 31.7453H111.698V45.5185H96.021V31.7453Z" fill="#449AFF"/>
<path d="M96.021 45.5185H111.698V61.2592H96.021V45.5185Z" fill="#449AFF"/>
<path d="M96.021 16.0045C96.021 7.31112 103.04 0.263738 111.698 0.263738V16.0045H96.021Z" fill="#449AFF"/>
<path d="M111.698 0.263738H125.415V16.0045H111.698V0.263738Z" fill="#449AFF"/>
<path fill-rule="evenodd" clip-rule="evenodd" d="M125.415 0.263738V16.0045H141.092C141.092 15.3393 141.051 14.6836 140.971 14.0401C140.088 6.91735 134.465 1.27185 127.372 0.385126C126.731 0.305007 126.078 0.263738 125.415 0.263738ZM127.372 2.36717V14.0401H138.997C138.139 8.00373 133.383 3.22896 127.372 2.36717Z" fill="#449AFF"/>
<path d="M111.698 61.2592H125.415V77H111.698V61.2592Z" fill="#449AFF"/>
<path d="M125.415 61.2592H141.092C141.092 69.9526 134.073 77 125.415 77V61.2592Z" fill="#449AFF"/>
<path d="M125.415 16.0045H141.092L125.415 31.7453V16.0045Z" fill="#449AFF"/>
<path d="M125.415 45.5185H141.092V61.2592H125.415V45.5185Z" fill="#449AFF"/>
<path d="M47.0307 0.263738H62.7076V16.0045H47.0307V0.263738Z" fill="#405A77"/>
<path d="M47.0307 16.0045H62.7076L47.0307 31.7453V16.0045Z" fill="#405A77"/>
<path d="M62.7076 0.263738H78.3845V16.0045H62.7076V0.263738Z" fill="#405A77"/>
<path d="M78.3845 0.263738C87.0426 0.263738 94.0614 7.31112 94.0614 16.0045H78.3845V0.263738Z" fill="#405A77"/>
<path d="M78.3845 16.0045H94.0614V31.7453H78.3845V16.0045Z" fill="#405A77"/>
<path d="M78.3845 31.7453H94.0614C94.0614 39.352 87.0426 45.5185 78.3845 45.5185V31.7453Z" fill="#405A77"/>
<path d="M78.3845 61.2592H94.0614V77H78.3845V61.2592Z" fill="#405A77"/>
<path fill-rule="evenodd" clip-rule="evenodd" d="M78.3845 45.5185V61.2592H94.0614C94.0614 60.594 94.0203 59.9384 93.9405 59.2948C93.0574 52.1721 87.4348 46.5266 80.341 45.6398C79.7 45.5597 79.0471 45.5185 78.3845 45.5185ZM80.341 47.6219V59.2948H91.9665C91.1082 53.2584 86.3528 48.4837 80.341 47.6219Z" fill="#405A77"/>
<path d="M62.7076 31.7453H78.3845V45.5185L62.7076 45.5185V31.7453Z" fill="#405A77"/>
<path d="M47.0307 31.7453H62.7076V45.5185H47.0307V31.7453Z" fill="#405A77"/>
<path d="M47.0307 45.5185H62.7076V61.2592H47.0307V45.5185Z" fill="#405A77"/>
<path d="M0 0.263738H15.6769V16.0045H0V0.263738Z" fill="#9BABBD"/>
<path d="M0 16.0045H15.6769V31.7453H0V16.0045Z" fill="#9BABBD"/>
<path d="M0 31.7453H15.6769V45.5185H0V31.7453Z" fill="#9BABBD"/>
<path d="M0 45.5185H15.6769V61.2592H0V45.5185Z" fill="#9BABBD"/>
<path d="M0 61.2592H15.6769V77H0V61.2592Z" fill="#9BABBD"/>
<path d="M15.6769 61.2592H31.3538V77H15.6769V61.2592Z" fill="#9BABBD"/>
<path d="M15.6769 31.7453H31.3538V45.5185H15.6769V31.7453Z" fill="#9BABBD"/>
<path d="M15.6769 0.263738H31.3538V16.0045H15.6769V0.263738Z" fill="#9BABBD"/>
<path d="M31.3538 0.263738H45.0711V16.0045H31.3538V0.263738Z" fill="#9BABBD"/>
<path d="M62.7076 77H47.0307L47.0307 61.2592L62.7076 77Z" fill="#405A77"/>
<path d="M171.86 17.8909H185.249V14.5428H175.78V10.6323H185.249V7.28416H175.78V3.37372H185.249V0.0255569H171.86C171.86 5.98068 171.86 11.9358 171.86 17.8909Z" fill="#26315A"/>
<path d="M191.714 17.8909V0.0255569H187.794V17.8909H191.714Z" fill="#26315A"/>
<path d="M194.282 4.93278V17.8909H198.202V4.93278H194.282ZM194.282 3.42483H198.202V0.0255569H194.282V3.42483Z" fill="#26315A"/>
<path d="M200.77 17.8909H204.69V11.9358C204.69 10.5556 204.486 9.40552 205.734 8.48541C206.497 7.92313 207.439 7.66754 208.228 7.97424C209.603 8.51097 209.425 9.94224 209.425 11.1435V17.8909H213.37V11.1435C213.37 10.5045 213.345 9.91669 213.345 9.37996C213.345 4.16603 207.337 3.3226 204.69 6.21071V4.93278H200.77V17.8909Z" fill="#26315A"/>
<path d="M224.324 9.25216L226.742 6.54297L226.412 6.28738C225.546 5.67398 224.655 5.23949 223.637 4.95834C223.382 4.90723 223.153 4.85611 222.899 4.80499C222.339 4.70276 221.753 4.6772 221.193 4.65164C220.175 4.6772 219.157 4.85611 218.215 5.23949C217.502 5.54619 216.891 6.08292 216.459 6.74744C216.102 7.28416 215.899 7.92312 215.899 8.58764C215.873 10.7346 217.222 11.6035 219.106 12.3447C219.921 12.677 223.815 13.6993 222.95 14.6961C221.982 15.8207 218.775 14.5428 217.63 13.1371L215.262 15.7951L215.568 16.0507C215.771 16.2296 215.975 16.383 216.179 16.5363C217.019 17.1497 217.935 17.6098 218.953 17.8654C219.182 17.9165 219.437 17.9676 219.666 18.0187H219.691C220.251 18.121 220.811 18.1721 221.397 18.1721C222.39 18.1465 223.433 17.9932 224.35 17.5842C225.088 17.2775 225.699 16.7408 226.132 16.0763C226.488 15.5395 226.742 14.8495 226.768 14.2105C226.793 12.0636 225.521 11.1435 223.637 10.4023C223.382 10.3001 223.128 10.1978 222.848 10.1212C222.415 9.9678 221.982 9.81445 221.55 9.6611C221.168 9.53331 220.786 9.40552 220.43 9.25216C217.35 7.97424 221.855 6.46629 224.324 9.25216Z" fill="#26315A"/>
<path d="M171.86 26.436C171.86 32.3911 171.86 38.3462 171.86 44.3269H175.78V37.8095H178.453L181.1 42.2567L182.347 44.3013H186.929L185.707 42.2567L183.009 37.7584C188.787 36.9405 188.533 26.436 182.271 26.436H171.86ZM181.278 34.4358H175.78V29.7841H181.278C183.849 29.7841 183.849 34.4358 181.278 34.4358Z" fill="#26315A"/>
<path d="M193.755 39.0874H203.275C203.402 38.2696 203.402 37.4006 203.275 36.5571C203.071 35.4837 202.664 34.4613 202.002 33.5924C201.213 32.5445 200.093 31.7266 198.617 31.3432C198.006 31.1643 197.293 31.0621 196.555 31.0621C195.791 31.0621 195.104 31.1643 194.468 31.3432C188.129 33.0556 188.129 42.5889 194.468 44.3013C195.078 44.4803 195.766 44.5825 196.479 44.5825H196.606C197.344 44.5825 198.006 44.4803 198.642 44.3013C200.093 43.918 201.213 43.1001 202.002 42.0522L199.049 39.7775C198.566 40.6209 197.726 41.2343 196.555 41.2343C195.078 41.2343 194.137 40.2887 193.755 39.0874ZM193.755 36.5571C194.137 35.3559 195.078 34.4102 196.555 34.4102C197.726 34.4102 198.566 35.0236 199.049 35.8926C199.151 36.0971 199.253 36.3271 199.329 36.5571H193.755Z" fill="#26315A"/>
<path d="M213.635 35.6626L216.053 32.9534L215.723 32.6978C214.857 32.0844 213.966 31.6499 212.948 31.3688C212.693 31.3176 212.464 31.2665 212.21 31.2154C211.65 31.1132 211.064 31.0876 210.504 31.0621C209.486 31.0876 208.468 31.2665 207.526 31.6499C206.813 31.9566 206.202 32.4933 205.77 33.1579C205.413 33.6946 205.21 34.3335 205.21 34.9981C205.184 37.145 206.533 38.014 208.417 38.7552C209.232 39.0874 213.126 40.1098 212.261 41.1065C211.293 42.2311 208.086 40.9532 206.941 39.5475L204.573 42.2056L204.879 42.4611C205.082 42.64 205.286 42.7934 205.49 42.9467C206.33 43.5602 207.246 44.0202 208.264 44.2758C208.493 44.3269 208.748 44.378 208.977 44.4291H209.002C209.562 44.5314 210.122 44.5825 210.708 44.5825C211.701 44.5569 212.744 44.4036 213.661 43.9946C214.399 43.6879 215.01 43.1512 215.442 42.4867C215.799 41.95 216.053 41.2599 216.079 40.6209C216.104 38.474 214.832 37.5539 212.948 36.8127C212.693 36.7105 212.439 36.6082 212.159 36.5316C211.726 36.3782 211.293 36.2249 210.861 36.0715C210.479 35.9437 210.097 35.8159 209.741 35.6626C206.661 34.3847 211.166 32.8767 213.635 35.6626Z" fill="#26315A"/>
<path d="M221.969 39.0874H231.489C231.616 38.2696 231.616 37.4006 231.489 36.5571C231.285 35.4837 230.878 34.4613 230.216 33.5924C229.427 32.5445 228.307 31.7266 226.831 31.3432C226.22 31.1643 225.507 31.0621 224.769 31.0621C224.005 31.0621 223.318 31.1643 222.682 31.3432C216.343 33.0556 216.343 42.5889 222.682 44.3013C223.292 44.4803 223.98 44.5825 224.693 44.5825H224.82C225.558 44.5825 226.22 44.4803 226.856 44.3013C228.307 43.918 229.427 43.1001 230.216 42.0522L227.263 39.7775C226.78 40.6209 225.94 41.2343 224.769 41.2343C223.293 41.2343 222.351 40.2887 221.969 39.0874ZM221.969 36.5571C222.351 35.3559 223.293 34.4102 224.769 34.4102C225.94 34.4102 226.78 35.0236 227.263 35.8926C227.365 36.0971 227.467 36.3271 227.543 36.5571H221.969Z" fill="#26315A"/>
<path d="M247.323 31.3432H243.378V32.9278C242.537 31.8799 241.341 31.0621 239.61 31.0621C235.741 31.0621 233.807 34.4358 233.807 37.8351C233.807 41.2088 235.741 44.5825 239.61 44.5825C241.341 44.5825 242.537 43.7646 243.378 42.7167V44.3013H247.323V31.3432ZM237.777 37.8351C237.777 36.1226 238.77 34.4102 240.73 34.4102C242.716 34.4102 243.378 36.1226 243.378 37.8351C243.378 39.5219 242.716 41.2343 240.73 41.2343C238.77 41.2343 237.777 39.5219 237.777 37.8351Z" fill="#26315A"/>
<path d="M249.865 44.3013H253.785V37.8351C253.785 34.8958 255.949 33.7968 258.443 34.9725V31.1132C258.087 31.0876 257.705 31.0621 257.349 31.0621C255.898 31.0621 254.599 31.7266 253.785 32.6211V31.3432H249.865V44.3013Z" fill="#26315A"/>
<path d="M267.127 31.0621C258.014 31.0621 258.014 44.5825 267.127 44.5825C269.622 44.5825 271.454 43.5602 272.574 42.0522L269.622 39.7775C269.138 40.6209 268.298 41.2343 267.127 41.2343C263.156 41.2343 263.156 34.4102 267.127 34.4102C268.298 34.4102 269.138 35.0236 269.622 35.8926L272.574 33.5924C271.454 32.11 269.622 31.0621 267.127 31.0621Z" fill="#26315A"/>
<path d="M274.4 44.3013H278.32V36.1993C278.905 34.8192 280.611 33.8991 281.858 34.3847C283.233 34.9214 283.055 36.3527 283.055 37.5539V44.3013H287V37.5539C287 36.915 286.975 36.3271 286.975 35.7904C286.975 32.6978 285.422 31.0621 281.884 31.0621C280.433 31.0621 279.134 31.7266 278.32 32.6211V26.436H274.4V44.3013Z" fill="#26315A"/>
<path d="M181.075 67.0825C175.678 67.0825 174.533 60.5651 177.587 57.7536C178.427 56.9869 179.573 56.4757 181.075 56.4757C182.551 56.4757 183.696 56.9869 184.536 57.7536C184.664 57.8559 184.791 57.9836 184.893 58.1114L185.3 57.7536L187.998 55.5045C186.904 54.2266 185.402 53.2809 183.493 52.8464C182.755 52.6675 181.94 52.5653 181.075 52.5653C180.184 52.5653 179.369 52.6675 178.631 52.8464C175.704 53.5109 173.718 55.4278 172.675 57.7536C170.536 62.6097 172.522 69.306 178.631 70.7118C179.369 70.8907 180.184 70.9929 181.075 70.9929C181.94 70.9929 182.755 70.8907 183.493 70.7118C185.402 70.2773 186.904 69.3316 187.998 68.0792L184.893 65.4723C184.027 66.4435 182.755 67.0825 181.075 67.0825Z" fill="#26315A"/>
<path d="M194.498 70.7118V52.8464H190.578V70.7118H194.498Z" fill="#26315A"/>
<path d="M209.666 57.7536H205.721V65.8557C205.135 67.2358 203.43 68.1559 202.208 67.6703C200.833 67.1336 200.986 65.7023 200.986 64.5266V57.7536H197.066V64.5266C197.066 65.14 197.092 65.7279 197.092 66.2646C197.092 69.3572 198.619 70.9929 202.157 70.9929C203.608 70.9929 204.906 70.3284 205.721 69.4338V70.7118H209.666V57.7536Z" fill="#26315A"/>
<path d="M212.205 52.8464V70.7118H216.125V69.1271C216.965 70.175 218.161 70.9929 219.892 70.9929C227.656 70.9929 227.656 57.4725 219.892 57.4725C218.161 57.4725 216.965 58.2904 216.125 59.3382V52.8464H212.205ZM216.125 64.2455C216.125 62.5331 216.787 60.8206 218.772 60.8206C222.718 60.8206 222.718 67.6448 218.772 67.6448C216.787 67.6448 216.125 65.9323 216.125 64.2455Z" fill="#26315A"/>
<path d="M152.769 0H157.011V74.9715H152.769V0Z" fill="#26315A"/>
</svg>
